<?xml version="1.0" encoding="UTF-8"?>
<svg id="Layer_2" data-name="Layer 2" xmlns="http://www.w3.org/2000/svg" viewBox="0 0 256 256">
  <defs>
    <style>
      .cls-1 {
        fill: #ccc;
      }

      .cls-2 {
        fill: #888;
      }
    </style>
  </defs>
  <g id="Layer_2-2" data-name="Layer 2">
    <g>
      <path class="cls-1" d="M162.41,68.82h-68.82c-13.68,0-24.77,11.09-24.77,24.77h0c0,13.68,11.09,24.77,24.77,24.77h68.82c24.32,0,44.04,19.72,44.04,44.04h0c0,24.32-19.72,44.04-44.04,44.04h-24.77s0,49.55,0,49.55h24.77c51.69,0,93.59-41.9,93.59-93.59h0c0-51.69-41.9-93.59-93.59-93.59Z"/>
      <path class="cls-1" d="M118.37,206.45h-24.77c-13.68,0-24.77,11.09-24.77,24.77h0c0,13.68,11.09,24.77,24.77,24.77h24.77s0-49.55,0-49.55Z"/>
      <path class="cls-2" d="M137.63,49.55h24.77c13.68,0,24.77-11.09,24.77-24.77h0C187.18,11.09,176.09,0,162.41,0h-24.77v49.55Z"/>
      <path class="cls-2" d="M162.41,137.63h-68.82c-24.32,0-44.04-19.72-44.04-44.04h0c0-24.32,19.72-44.04,44.04-44.04h24.77s0-49.55,0-49.55h-24.77C41.9,0,0,41.9,0,93.59h0c0,51.69,41.9,93.59,93.59,93.59h68.82c13.68,0,24.77-11.09,24.77-24.77h0c0-13.68-11.09-24.77-24.77-24.77Z"/>
    </g>
  </g>
</svg>
