<svg xmlns="http://www.w3.org/2000/svg" id="Layer_2" data-name="Layer 2" viewBox="0 0 256 256"><defs><style>.cls-1,.cls-2{fill:none;stroke:#ccc;stroke-width:2}.cls-2{stroke:#888}</style></defs><g id="Layer_2-2" stroke-linecap="round" stroke-linejoin="round" data-name="Layer 2"><rect width="49.52" height="49.55" x="68.82" y="68.82" stroke-dasharray="200" stroke-dashoffset="200" class="cls-1" rx="12.39" ry="12.39"><animate fill="freeze" attributeName="stroke-dashoffset" dur="2.0s" from="200" to="0"/></rect><path stroke-dasharray="800" stroke-dashoffset="800" d="M231.23 68.82h-81.2c-6.84 0-12.39 5.55-12.39 12.39v24.77c0 6.84 5.55 12.39 12.39 12.39h31.66c13.68 0 24.77 11.09 24.77 24.77v38.54c0 13.68-11.09 24.77-24.77 24.77h-31.66c-6.84 0-12.39 5.55-12.39 12.39v24.77c0 6.84 5.55 12.39 12.39 12.39h81.2c13.68 0 24.77-11.09 24.77-24.77V93.59c0-13.68-11.09-24.77-24.77-24.77" class="cls-1"><animate fill="freeze" attributeName="stroke-dashoffset" dur="2.0s" from="800" to="0"/></path><rect width="49.55" height="49.55" x="68.82" y="206.45" stroke-dasharray="200" stroke-dashoffset="200" class="cls-1" rx="12.39" ry="12.39"><animate fill="freeze" attributeName="stroke-dashoffset" begin="0.5s" dur="2.0s" from="200" to="0"/></rect><rect width="49.55" height="49.55" x="137.63" stroke-dasharray="200" stroke-dashoffset="200" class="cls-2" rx="12.39" ry="12.39"><animate fill="freeze" attributeName="stroke-dashoffset" begin="1.0s" dur="2.0s" from="200" to="0"/></rect><path stroke-dasharray="800" stroke-dashoffset="800" d="M105.95 137.63H74.32c-13.68 0-24.77-11.09-24.77-24.77V74.32c0-13.68 11.09-24.77 24.77-24.77h31.66c6.84 0 12.39-5.55 12.39-12.39V12.39c0-6.84-5.55-12.39-12.39-12.39H24.77C11.09 0 0 11.09 0 24.77V162.4c0 13.68 11.09 24.77 24.77 24.77h81.18c6.84 0 12.39-5.55 12.39-12.39v-24.77c0-6.84-5.55-12.39-12.39-12.39Z" class="cls-2"><animate fill="freeze" attributeName="stroke-dashoffset" begin="1.5s" dur="2.0s" from="800" to="0"/></path><rect width="49.55" height="49.55" x="137.63" y="137.63" stroke-dasharray="200" stroke-dashoffset="200" class="cls-2" rx="12.39" ry="12.39"><animate fill="freeze" attributeName="stroke-dashoffset" begin="2.0s" dur="2.0s" from="200" to="0"/></rect></g></svg>