<?xml version="1.0" encoding="UTF-8" standalone="no"?>
<svg
   id="Layer_1"
   data-name="Layer 1"
   viewBox="0 0 101.475 133.30499"
   version="1.1"
   width="101.475"
   height="133.30499"
   xmlns:xlink="http://www.w3.org/1999/xlink"
   xmlns="http://www.w3.org/2000/svg"
   xmlns:svg="http://www.w3.org/2000/svg">
  <defs
     id="defs1">
    <linearGradient
       id="linearGradient8">
      <stop
         style="stop-color:#ffffff;stop-opacity:1;"
         offset="0"
         id="stop8" />
      <stop
         style="stop-color:#ffffff;stop-opacity:0;"
         offset="1"
         id="stop9" />
    </linearGradient>
    <style
       id="style1">
      .cls-1 {
        fill: #f5f5f5;
      }

      .cls-1, .cls-2 {
        stroke-width: 0px;
      }

      .cls-2 {
        fill: #a6a6a6;
      }
    </style>
    <linearGradient
       xlink:href="#linearGradient8"
       id="linearGradient9"
       x1="169.0636"
       y1="212.27863"
       x2="-75.04261"
       y2="-96.978142"
       gradientUnits="userSpaceOnUse" />
    <linearGradient
       xlink:href="#linearGradient8"
       id="linearGradient1"
       gradientUnits="userSpaceOnUse"
       x1="169.0636"
       y1="212.27863"
       x2="-75.04261"
       y2="-96.978142" />
    <linearGradient
       xlink:href="#linearGradient8"
       id="linearGradient2"
       gradientUnits="userSpaceOnUse"
       x1="169.0636"
       y1="212.27863"
       x2="-75.04261"
       y2="-96.978142" />
  </defs>
  <path
     id="polygon1-9"
     style="display:inline;fill:#000000;fill-opacity:1;stroke-width:0px"
     class="cls-2"
     d="m 101.475,133.305 v -92.23 h -61.88 l -0.01,21.22 h 40.68 v 49.79 h -23.28 v 10.61 h -10.29 v -10.61 H 36.36536 l -9.791016,21.22 z" />
  <path
     id="polygon2-3"
     style="display:inline;fill:#010101;stroke-width:0px"
     class="cls-1"
     d="m 56.985,26.525 h 8.381504 L 79.841567,5.305 H 5.145 v 92.23 h 61.88 l 0.01,-21.22 h -40.67 v -49.79 h 20.33 v -10.61 h 10.29 z" />
  <path
     id="polygon1"
     style="display:inline;fill:#888888;fill-opacity:1;stroke-width:0px"
     class="cls-2"
     d="M 51.84,117.39 H 41.55 V 106.78 H 32.444894 L 21.021166,128 H 96.33 V 35.77 H 34.45 l -0.01,21.22 h 40.68 v 49.79 H 51.84 Z" />
  <path
     id="polygon2"
     style="display:inline;fill:#888888;fill-opacity:1;stroke-width:0px"
     class="cls-1"
     d="M 61.89,71.01 H 21.22 V 21.22 H 41.55 V 10.61 h 10.29 v 10.61 h 9.401949 L 75.308834,0 H 0 v 92.23 h 61.88 z" />
  <g
     id="g8"
     style="display:none;fill:url(#linearGradient9)">
    <path
       id="path8"
       style="display:inline;fill:url(#linearGradient1);fill-opacity:0.768421;stroke-width:0px"
       class="cls-1"
       d="M 61.89,71.01 H 21.22 V 21.22 H 41.55 V 10.61 H 51.84 V 21.22 H 75.12 L 75.308834,0 H 0 v 92.23 h 61.88 z" />
    <path
       id="path7"
       style="display:inline;fill:url(#linearGradient2);fill-opacity:0.768421;stroke-width:0px"
       class="cls-2"
       d="M 51.84,117.39 H 41.55 V 106.78 H 21.22 L 21.021166,128 H 96.33 V 35.77 H 34.45 l -0.01,21.22 h 40.68 v 49.79 H 51.84 Z" />
  </g>
</svg>
