<?xml version="1.0" encoding="UTF-8"?>
<svg id="Layer_2" data-name="Layer 2" xmlns="http://www.w3.org/2000/svg" viewBox="0 0 256 256">
  <defs>
    <style>
      .cls-1 {
        fill: #f9f9ff;
      }

      .cls-2 {
        fill: #ed5525;
      }
    </style>
  </defs>
  <g id="Layer_2-2" data-name="Layer 2">
    <g>
      <rect class="cls-1" x="68.82" y="68.82" width="49.52" height="49.55" rx="12.39" ry="12.39"/>
      <path class="cls-1" d="M231.23,68.82h-81.2c-6.84,0-12.39,5.55-12.39,12.39v24.77c0,6.84,5.55,12.39,12.39,12.39h31.66c13.68,0,24.77,11.09,24.77,24.77v38.54c0,13.68-11.09,24.77-24.77,24.77h-31.66c-6.84,0-12.39,5.55-12.39,12.39v24.77c0,6.84,5.55,12.39,12.39,12.39h81.2c13.68,0,24.77-11.09,24.77-24.77V93.59c0-13.68-11.09-24.77-24.77-24.77Z"/>
      <rect class="cls-1" x="68.82" y="206.45" width="49.55" height="49.55" rx="12.39" ry="12.39"/>
      <rect class="cls-2" x="137.63" y="0" width="49.55" height="49.55" rx="12.39" ry="12.39"/>
      <path class="cls-2" d="M105.95,137.63h-31.63c-13.68,0-24.77-11.09-24.77-24.77v-38.54c0-13.68,11.09-24.77,24.77-24.77h31.66c6.84,0,12.39-5.55,12.39-12.39V12.39C118.37,5.55,112.82,0,105.98,0H24.77C11.09,0,0,11.09,0,24.77v137.63c0,13.68,11.09,24.77,24.77,24.77h81.18c6.84,0,12.39-5.55,12.39-12.39v-24.77c0-6.84-5.55-12.39-12.39-12.39Z"/>
      <rect class="cls-2" x="137.63" y="137.63" width="49.55" height="49.55" rx="12.39" ry="12.39"/>
    </g>
  </g>
</svg>