<svg width="22" height="22" viewBox="0 0 22 22" fill="none" xmlns="http://www.w3.org/2000/svg">
<path d="M10.9997 12.2831L6.50807 16.7747C6.34002 16.9428 6.12613 17.0268 5.86641 17.0268C5.60668 17.0268 5.39279 16.9428 5.22474 16.7747C5.05668 16.6067 4.97266 16.3928 4.97266 16.1331C4.97266 15.8734 5.05668 15.6595 5.22474 15.4914L9.71641 10.9997L5.22474 6.50807C5.05668 6.34002 4.97266 6.12613 4.97266 5.86641C4.97266 5.60668 5.05668 5.39279 5.22474 5.22474C5.39279 5.05668 5.60668 4.97266 5.86641 4.97266C6.12613 4.97266 6.34002 5.05668 6.50807 5.22474L10.9997 9.71641L15.4914 5.22474C15.6595 5.05668 15.8734 4.97266 16.1331 4.97266C16.3928 4.97266 16.6067 5.05668 16.7747 5.22474C16.9428 5.39279 17.0268 5.60668 17.0268 5.86641C17.0268 6.12613 16.9428 6.34002 16.7747 6.50807L12.2831 10.9997L16.7747 15.4914C16.9428 15.6595 17.0268 15.8734 17.0268 16.1331C17.0268 16.3928 16.9428 16.6067 16.7747 16.7747C16.6067 16.9428 16.3928 17.0268 16.1331 17.0268C15.8734 17.0268 15.6595 16.9428 15.4914 16.7747L10.9997 12.2831Z" fill="#B5B5B5"/>
</svg>
