<svg width="18" height="18" viewBox="0 0 18 18" fill="none" xmlns="http://www.w3.org/2000/svg">
  <path
    fill-rule="evenodd"
    clip-rule="evenodd"
    d="M10.71 1.5C11.0248 1.50008 11.3316 1.59921 11.587 1.78336C11.8423 1.9675 12.0333 2.22731 12.1327 2.526L12.54 3.75H15C15.1989 3.75 15.3897 3.82902 15.5303 3.96967C15.671 4.11032 15.75 4.30109 15.75 4.5C15.75 4.69891 15.671 4.88968 15.5303 5.03033C15.3897 5.17098 15.1989 5.25 15 5.25H14.25V14.25C14.25 14.8467 14.0129 15.419 13.591 15.841C13.169 16.2629 12.5967 16.5 12 16.5H6C5.40326 16.5 4.83097 16.2629 4.40901 15.841C3.98705 15.419 3.75 14.8467 3.75 14.25V5.25H3C2.80109 5.25 2.61032 5.17098 2.46967 5.03033C2.32902 4.88968 2.25 4.69891 2.25 4.5C2.25 4.30109 2.32902 4.11032 2.46967 3.96967C2.61032 3.82902 2.80109 3.75 3 3.75H5.46L5.86725 2.526C5.96677 2.22719 6.15783 1.96729 6.41332 1.78314C6.66882 1.59898 6.9758 1.49992 7.29075 1.5H10.71ZM12.75 5.25H5.25V14.25C5.25 14.4489 5.32902 14.6397 5.46967 14.7803C5.61032 14.921 5.80109 15 6 15H12C12.1989 15 12.3897 14.921 12.5303 14.7803C12.671 14.6397 12.75 14.4489 12.75 14.25V5.25ZM10.71 3H7.29L7.04025 3.75H10.9598L10.71 3Z"
    fill="currentColor"
  />
</svg>
