<svg width="184" height="184" viewBox="0 0 184 184" fill="none" xmlns="http://www.w3.org/2000/svg">
<path d="M61.5469 41.3577C32.7209 39.6111 10.7898 46.6203 6.01231 63.6514C-0.0567955 85.2841 22.8337 105.312 57.8679 119.115" stroke="#272B32" stroke-width="0.769171" stroke-linecap="round" stroke-linejoin="round"/>
<path d="M85.7638 44.5753C81.4006 43.705 77.009 42.9838 72.5967 42.4131" stroke="#272B32" stroke-width="0.769171" stroke-linecap="round" stroke-linejoin="round"/>
<path d="M157.422 71.9733C143.748 62.5841 124.575 54.7702 102.892 48.6874C100.182 47.9267 97.4589 47.2147 94.7236 46.5518" stroke="#272B32" stroke-width="0.769171" stroke-linecap="round" stroke-linejoin="round"/>
<path d="M132.959 135.448C156.09 135.673 173.071 128.9 177.851 111.864C181.512 98.8163 175.929 87.188 164.188 77.1396" stroke="#272B32" stroke-width="0.769171" stroke-linecap="round" stroke-linejoin="round"/>
<path d="M108.141 133.034C112.551 133.783 116.848 134.369 121.002 134.775" stroke="#272B32" stroke-width="0.769171" stroke-linecap="round" stroke-linejoin="round"/>
<path d="M67.9512 122.804C72.2543 124.26 76.5954 125.602 80.97 126.828C88.6429 128.981 96.1601 130.785 103.405 132.177" stroke="#272B32" stroke-width="0.769171" stroke-linecap="round" stroke-linejoin="round"/>
<path d="M159.651 66.2579L152.482 84.6373C152.283 85.1385 152.184 85.6741 152.193 86.2134C152.201 86.7527 152.317 87.285 152.532 87.7797C152.747 88.2743 153.058 88.7215 153.446 89.0955C153.835 89.4695 154.294 89.7629 154.796 89.9589C155.299 90.1549 155.835 90.2496 156.374 90.2375C156.913 90.2254 157.445 90.1067 157.938 89.8883C158.431 89.67 158.877 89.3562 159.248 88.9651C159.619 88.574 159.91 88.1133 160.103 87.6096L167.272 69.2302C167.471 68.7289 167.569 68.1933 167.561 67.654C167.552 67.1147 167.437 66.5824 167.222 66.0878C167.007 65.5931 166.696 65.1459 166.307 64.7719C165.919 64.3979 165.46 64.1045 164.958 63.9085C164.455 63.7125 163.919 63.6178 163.379 63.6299C162.84 63.6421 162.309 63.7607 161.816 63.9791C161.322 64.1974 160.877 64.5112 160.506 64.9023C160.134 65.2934 159.844 65.7541 159.651 66.2579Z" stroke="#272B32" stroke-width="0.769171" stroke-linecap="round" stroke-linejoin="round"/>
<path d="M35.7486 58.5777C35.3336 58.4351 34.8946 58.3757 34.4566 58.4029C34.0186 58.43 33.5902 58.5432 33.196 58.7359C32.8017 58.9286 32.4493 59.1971 32.1588 59.526C31.8683 59.8549 31.6455 60.2379 31.503 60.6529L27.4048 72.5842C27.2622 72.9993 27.2029 73.4383 27.23 73.8763C27.2572 74.3143 27.3704 74.7426 27.5631 75.1368C27.7558 75.5311 28.0242 75.8835 28.3531 76.174C28.682 76.4645 29.0649 76.6873 29.48 76.8299C29.895 76.9724 30.334 77.0317 30.772 77.0046C31.21 76.9774 31.6383 76.8643 32.0326 76.6716C32.4268 76.4788 32.7792 76.2104 33.0697 75.8815C33.3602 75.5526 33.5831 75.1697 33.7256 74.7547L37.8238 62.8233C37.9664 62.4083 38.0258 61.9692 37.9987 61.5313C37.9715 61.0933 37.8584 60.6649 37.6657 60.2707C37.473 59.8764 37.2045 59.524 36.8755 59.2335C36.5466 58.943 36.1637 58.7202 35.7486 58.5777Z" stroke="#272B32" stroke-width="0.769171" stroke-linecap="round" stroke-linejoin="round"/>
<path d="M65.3857 115.494L38.6835 128.354C37.7692 128.8 37.0688 129.59 36.7354 130.551C36.4019 131.513 36.4625 132.567 36.9039 133.483C37.3454 134.4 38.1317 135.105 39.0911 135.443C40.0505 135.782 41.1049 135.727 42.0238 135.29L68.726 122.43C69.6403 121.983 70.3407 121.193 70.6742 120.232C71.0077 119.271 70.947 118.217 70.5056 117.3C70.0642 116.384 69.2778 115.679 68.3184 115.34C67.3591 115.002 66.3047 115.057 65.3857 115.494Z" stroke="#272B32" stroke-width="0.769171" stroke-linecap="round" stroke-linejoin="round"/>
<path d="M125.172 10.8066C120.272 9.37767 115.144 12.1907 113.715 17.0899C112.286 21.9891 115.099 27.1181 119.998 28.5471C124.897 29.976 130.026 27.163 131.455 22.2638C132.884 17.3645 130.071 12.2355 125.172 10.8066Z" stroke="#272B32" stroke-width="0.769171" stroke-linecap="round" stroke-linejoin="round"/>
<path d="M113.748 36.6467C113.295 36.5146 112.821 36.4729 112.352 36.5242C111.883 36.5754 111.429 36.7185 111.015 36.9453C110.602 37.1721 110.237 37.4781 109.941 37.8459C109.646 38.2137 109.426 38.6361 109.294 39.089C109.162 39.5418 109.12 40.0162 109.171 40.4852C109.223 40.9541 109.366 41.4083 109.593 41.822C109.819 42.2356 110.125 42.6005 110.493 42.8958C110.861 43.1912 111.283 43.4112 111.736 43.5433C112.651 43.8101 113.634 43.7027 114.469 43.2447C115.305 42.7867 115.924 42.0156 116.191 41.101C116.457 40.1865 116.35 39.2034 115.892 38.368C115.434 37.5327 114.663 36.9135 113.748 36.6467Z" stroke="#272B32" stroke-width="0.769171" stroke-linecap="round" stroke-linejoin="round"/>
<path d="M132.811 34.2982C132.212 34.1235 131.568 34.194 131.02 34.4941C130.473 34.7943 130.068 35.2996 129.893 35.8987C129.718 36.4979 129.789 37.1419 130.089 37.6891C130.389 38.2363 130.894 38.6419 131.493 38.8166C131.79 38.9031 132.101 38.9303 132.408 38.8966C132.715 38.863 133.013 38.7692 133.284 38.6206C133.555 38.472 133.794 38.2714 133.987 38.0304C134.181 37.7894 134.325 37.5127 134.411 37.216C134.498 36.9193 134.525 36.6085 134.491 36.3013C134.458 35.9941 134.364 35.6965 134.215 35.4256C134.067 35.1546 133.866 34.9156 133.625 34.7222C133.384 34.5287 133.107 34.3846 132.811 34.2982Z" stroke="#272B32" stroke-width="0.769171" stroke-linecap="round" stroke-linejoin="round"/>
<path d="M51.173 36.4225L71.3017 28.2553C71.614 28.1286 71.8982 27.9417 72.1382 27.7051C72.3782 27.4686 72.5693 27.187 72.7005 26.8767C72.8317 26.5663 72.9004 26.2331 72.9029 25.8961C72.9053 25.5591 72.8414 25.225 72.7146 24.9127C72.5879 24.6005 72.401 24.3163 72.1644 24.0763C71.9279 23.8363 71.6464 23.6452 71.336 23.514C71.0256 23.3828 70.6924 23.314 70.3554 23.3116C70.0185 23.3092 69.6843 23.3731 69.3721 23.4998L49.5967 31.5242C50.0493 33.1795 50.5752 34.8139 51.173 36.4225Z" stroke="#272B32" stroke-width="0.769171" stroke-linecap="round" stroke-linejoin="round"/>
<path d="M58.0688 48.3076L76.4171 40.8626C77.0375 40.5996 77.5296 40.1032 77.7872 39.4805C78.0448 38.8579 78.0472 38.1589 77.7938 37.5345C77.5405 36.91 77.0518 36.4103 76.4332 36.1431C75.8146 35.8758 75.1157 35.8626 74.4874 36.1062L54.886 44.0592C55.8243 45.5632 56.8891 46.9845 58.0688 48.3076Z" stroke="#272B32" stroke-width="0.769171" stroke-linecap="round" stroke-linejoin="round"/>
<path d="M70.7031 56.2254L80.961 52.0631C81.5758 51.7963 82.0619 51.2997 82.3154 50.6794C82.5689 50.0591 82.5697 49.3642 82.3178 48.7433C82.0658 48.1223 81.581 47.6245 80.9669 47.3563C80.3528 47.088 79.6582 47.0705 79.0314 47.3076L64.136 53.3519C66.2561 54.6308 68.4649 55.5535 70.7031 56.2254Z" stroke="#272B32" stroke-width="0.769171" stroke-linecap="round" stroke-linejoin="round"/>
<path d="M82.8679 38.2451L100.059 31.2697C100.358 29.416 100.542 27.4973 100.595 25.5137L80.9383 33.4896C77.792 34.7656 79.7226 39.523 82.8679 38.2451Z" stroke="#272B32" stroke-width="0.769171" stroke-linecap="round" stroke-linejoin="round"/>
<path d="M87.4128 49.4446L94.7745 46.4577C95.9603 44.2717 96.9881 42.0036 97.8502 39.6709L85.4831 44.6891C82.3699 45.9524 84.2355 50.7363 87.4128 49.4446Z" stroke="#272B32" stroke-width="0.769171" stroke-linecap="round" stroke-linejoin="round"/>
<path d="M110.476 126.548L105.873 128.415C104.267 130.661 102.747 133.106 101.506 135.726L112.406 131.303C113.036 131.047 113.539 130.551 113.804 129.925C114.069 129.298 114.074 128.591 113.818 127.961C113.563 127.33 113.067 126.827 112.44 126.562C111.813 126.297 111.106 126.292 110.476 126.548Z" stroke="#272B32" stroke-width="0.769171" stroke-linecap="round" stroke-linejoin="round"/>
<path d="M114.826 137.266L98.8686 143.741C98.5242 145.623 98.3854 147.536 98.4549 149.448L116.756 142.022C117.068 141.895 117.352 141.708 117.592 141.472C117.832 141.235 118.023 140.954 118.154 140.643C118.285 140.333 118.354 140 118.357 139.663C118.359 139.326 118.295 138.992 118.168 138.679C118.042 138.367 117.855 138.083 117.618 137.843C117.382 137.603 117.1 137.412 116.79 137.281C116.479 137.149 116.146 137.081 115.809 137.078C115.472 137.076 115.138 137.14 114.826 137.266Z" stroke="#272B32" stroke-width="0.769171" stroke-linecap="round" stroke-linejoin="round"/>
<path d="M119.941 149.875L100.179 157.894C100.783 159.5 101.513 161.056 102.362 162.547L121.871 154.631C122.183 154.505 122.468 154.318 122.708 154.081C122.948 153.845 123.139 153.563 123.27 153.253C123.401 152.942 123.47 152.609 123.472 152.272C123.475 151.935 123.411 151.601 123.284 151.289C123.157 150.976 122.97 150.692 122.734 150.452C122.497 150.212 122.216 150.021 121.905 149.89C121.595 149.759 121.262 149.69 120.925 149.688C120.588 149.685 120.254 149.749 119.942 149.876L119.941 149.875Z" stroke="#272B32" stroke-width="0.769171" stroke-linecap="round" stroke-linejoin="round"/>
<path d="M121.819 121.946L116.928 123.931C113.822 125.19 115.666 129.982 118.857 128.686L130.44 123.987C127.904 123.223 125.046 122.536 121.819 121.946Z" stroke="#272B32" stroke-width="0.769171" stroke-linecap="round" stroke-linejoin="round"/>
<path d="M139.047 127.438L121.275 134.649C118.17 135.909 120.014 140.7 123.205 139.405L144.218 130.878C142.797 129.687 141.099 128.529 139.047 127.438V127.438Z" stroke="#272B32" stroke-width="0.769171" stroke-linecap="round" stroke-linejoin="round"/>
<path d="M149.787 137.764L126.392 147.257C123.287 148.517 125.13 153.308 128.321 152.014L151.657 142.545C151.236 140.828 150.616 139.326 149.787 137.764Z" stroke="#272B32" stroke-width="0.769171" stroke-linecap="round" stroke-linejoin="round"/>
<path d="M89.787 73.8149C90.0992 73.6882 90.3834 73.5012 90.6234 73.2647C90.8634 73.0281 91.0545 72.7466 91.1857 72.4362C91.3169 72.1258 91.3857 71.7926 91.3881 71.4557C91.3905 71.1187 91.3266 70.7846 91.1999 70.4723C91.0732 70.1601 90.8862 69.8758 90.6497 69.6358C90.4131 69.3958 90.1316 69.2048 89.8212 69.0736C89.5108 68.9424 89.1776 68.8736 88.8407 68.8712C88.5037 68.8687 88.1695 68.9327 87.8573 69.0594L82.9654 71.044C81.2499 73.3599 79.5729 75.8773 78.165 78.531L89.787 73.8149Z" fill="#FFAB85"/>
<path d="M74.4596 92.5177L94.1361 84.5345C94.4484 84.4078 94.7327 84.2208 94.9728 83.9843C95.2128 83.7477 95.4039 83.4662 95.5352 83.1557C95.6664 82.8453 95.7353 82.5121 95.7377 82.175C95.7402 81.838 95.6762 81.5038 95.5495 81.1915C95.4228 80.8792 95.2358 80.5949 94.9993 80.3548C94.7627 80.1148 94.4811 79.9237 94.1707 79.7924C93.8603 79.6612 93.527 79.5924 93.19 79.5899C92.853 79.5875 92.5188 79.6514 92.2065 79.7781L75.0089 86.7562C74.5841 88.6492 74.3791 90.5752 74.4596 92.5177Z" fill="#FFAB85"/>
<path d="M97.3226 92.3856L76.6895 100.758C77.5127 102.321 78.5443 103.766 79.756 105.052L99.2522 97.1411C99.8829 96.8852 100.386 96.3893 100.651 95.7624C100.916 95.1355 100.921 94.4291 100.665 93.7985C100.409 93.1679 99.9133 92.6647 99.2865 92.3998C98.6596 92.1348 97.9532 92.1297 97.3226 92.3856Z" fill="#FFAB85"/>
<path d="M105.209 104.998C104.953 104.367 104.457 103.864 103.831 103.599C103.204 103.334 102.498 103.329 101.867 103.584L86.3245 109.891C88.5278 111.027 90.8987 111.903 93.3172 112.592L103.797 108.34C104.109 108.213 104.393 108.026 104.633 107.79C104.873 107.553 105.065 107.272 105.196 106.962C105.327 106.651 105.396 106.318 105.398 105.981C105.4 105.644 105.336 105.31 105.209 104.998Z" fill="#FFAB85"/>
<path d="M89.787 73.8149C90.0992 73.6882 90.3834 73.5012 90.6234 73.2647C90.8634 73.0281 91.0545 72.7466 91.1857 72.4362C91.3169 72.1258 91.3857 71.7926 91.3881 71.4557C91.3905 71.1187 91.3266 70.7846 91.1999 70.4723C91.0732 70.1601 90.8862 69.8758 90.6497 69.6358C90.4131 69.3958 90.1316 69.2048 89.8212 69.0736C89.5108 68.9424 89.1776 68.8736 88.8407 68.8712C88.5037 68.8687 88.1695 68.9327 87.8573 69.0594L82.9654 71.044C81.2499 73.3599 79.5729 75.8773 78.165 78.531L89.787 73.8149Z" stroke="#272B32" stroke-width="0.769171" stroke-linecap="round" stroke-linejoin="round"/>
<path d="M74.4596 92.5177L94.1361 84.5345C94.4484 84.4078 94.7327 84.2208 94.9728 83.9843C95.2128 83.7477 95.4039 83.4662 95.5352 83.1557C95.6664 82.8453 95.7353 82.5121 95.7377 82.175C95.7402 81.838 95.6762 81.5038 95.5495 81.1915C95.4228 80.8792 95.2358 80.5949 94.9993 80.3548C94.7627 80.1148 94.4811 79.9237 94.1707 79.7924C93.8603 79.6612 93.527 79.5924 93.19 79.5899C92.853 79.5875 92.5188 79.6514 92.2065 79.7781L75.0089 86.7562C74.5841 88.6492 74.3791 90.5752 74.4596 92.5177Z" stroke="#272B32" stroke-width="0.769171" stroke-linecap="round" stroke-linejoin="round"/>
<path d="M97.3226 92.3856L76.6895 100.758C77.5127 102.321 78.5443 103.766 79.756 105.052L99.2522 97.1411C99.8829 96.8852 100.386 96.3893 100.651 95.7624C100.916 95.1355 100.921 94.4291 100.665 93.7985C100.409 93.1679 99.9133 92.6647 99.2865 92.3998C98.6596 92.1348 97.9532 92.1297 97.3226 92.3856Z" stroke="#272B32" stroke-width="0.769171" stroke-linecap="round" stroke-linejoin="round"/>
<path d="M105.209 104.998C104.953 104.367 104.457 103.864 103.831 103.599C103.204 103.334 102.498 103.329 101.867 103.584L86.3245 109.891C88.5278 111.027 90.8987 111.903 93.3172 112.592L103.797 108.34C104.109 108.213 104.393 108.026 104.633 107.79C104.873 107.553 105.065 107.272 105.196 106.962C105.327 106.651 105.396 106.318 105.398 105.981C105.4 105.644 105.336 105.31 105.209 104.998Z" stroke="#272B32" stroke-width="0.769171" stroke-linecap="round" stroke-linejoin="round"/>
<path d="M153.891 158.145C153.515 158.145 153.144 158.063 152.804 157.905C152.464 157.746 152.162 157.515 151.921 157.227C151.68 156.939 151.505 156.602 151.408 156.239C151.311 155.876 151.296 155.497 151.362 155.127C152.362 149.529 152.977 144.444 150.355 138.898C146.962 131.721 139.417 123.143 110.954 120.485L109.613 120.363C98.5064 119.357 77.833 117.484 71.1039 100.9C64.5341 84.7098 77.6087 69.1361 84.6317 60.7684C85.1196 60.1871 85.5837 59.6351 86.0149 59.1134C93.8342 49.6655 102.517 36.5204 100.242 18.584C100.195 18.2478 100.216 17.9057 100.303 17.5775C100.389 17.2493 100.54 16.9416 100.746 16.6721C100.953 16.4026 101.21 16.1767 101.505 16.0075C101.799 15.8383 102.124 15.7292 102.46 15.6864C102.797 15.6437 103.139 15.6682 103.466 15.7585C103.793 15.8488 104.099 16.0031 104.367 16.2125C104.634 16.4219 104.857 16.6822 105.022 16.9783C105.188 17.2745 105.294 17.6006 105.333 17.9377C107.854 37.8294 98.4469 52.1398 89.9685 62.385C89.53 62.915 89.0586 63.4762 88.5624 64.0675C81.7885 72.1367 70.4521 85.6416 75.8585 98.9689C81.2667 112.298 97.8638 114.122 111.431 115.374C135.657 117.61 149.091 124.214 154.994 136.704C158.26 143.611 157.529 149.787 156.413 156.029C156.307 156.622 155.996 157.158 155.535 157.545C155.074 157.931 154.492 158.143 153.89 158.144L153.891 158.145Z" fill="#FFAB85"/>
<path d="M153.891 158.145C153.515 158.145 153.144 158.063 152.804 157.905C152.464 157.746 152.162 157.515 151.921 157.227C151.68 156.939 151.505 156.602 151.408 156.239C151.311 155.876 151.296 155.497 151.362 155.127C152.362 149.529 152.977 144.444 150.355 138.898C146.962 131.721 139.417 123.143 110.954 120.485L109.613 120.363C98.5064 119.357 77.833 117.484 71.1039 100.9C64.5341 84.7098 77.6087 69.1361 84.6317 60.7684C85.1196 60.1871 85.5837 59.6351 86.0149 59.1134C93.8342 49.6655 102.517 36.5204 100.242 18.584C100.195 18.2478 100.216 17.9057 100.303 17.5775C100.389 17.2493 100.54 16.9416 100.746 16.6721C100.953 16.4026 101.21 16.1767 101.505 16.0075C101.799 15.8383 102.124 15.7292 102.46 15.6864C102.797 15.6437 103.139 15.6682 103.466 15.7585C103.793 15.8488 104.099 16.0031 104.367 16.2125C104.634 16.4219 104.857 16.6822 105.022 16.9783C105.188 17.2745 105.294 17.6006 105.333 17.9377C107.854 37.8294 98.4469 52.1398 89.9685 62.385C89.53 62.915 89.0586 63.4761 88.5624 64.0675C81.7885 72.1367 70.4521 85.6416 75.8585 98.9689C81.2667 112.298 97.8638 114.122 111.431 115.374C135.657 117.61 149.091 124.214 154.994 136.704C158.26 143.611 157.529 149.787 156.413 156.029C156.307 156.622 155.996 157.158 155.535 157.545C155.074 157.931 154.492 158.143 153.89 158.144L153.891 158.145Z" stroke="#272B32" stroke-width="0.769171" stroke-linecap="round" stroke-linejoin="round"/>
<path d="M96.2383 71.1977L107.822 66.4981C105.279 65.6174 102.457 64.9153 99.3579 64.3936L94.3086 66.4422C91.1953 67.7055 93.0609 72.4894 96.2383 71.1977Z" fill="#7B5DFF"/>
<path d="M100.587 81.9162L119.87 74.0922C118.652 72.6935 117.217 71.4284 115.568 70.2988L98.657 77.1607C98.3446 77.2873 98.0603 77.4742 97.8202 77.7108C97.5802 77.9474 97.3891 78.229 97.2579 78.5395C97.1267 78.8499 97.058 79.1832 97.0557 79.5202C97.0534 79.8573 97.1176 80.1915 97.2445 80.5037C97.3711 80.816 97.5581 81.1002 97.7946 81.3402C98.0311 81.5802 98.3126 81.7712 98.6229 81.9024C98.9333 82.0335 99.2665 82.1023 99.6034 82.1046C99.9404 82.107 100.274 82.043 100.587 81.9162Z" fill="#7B5DFF"/>
<path d="M105.702 94.5232L124.779 86.7826C124.746 85.017 124.475 83.264 123.975 81.5703L103.773 89.7677C103.142 90.0236 102.639 90.5196 102.373 91.1465C102.108 91.7735 102.103 92.48 102.359 93.1108C102.615 93.7415 103.111 94.2448 103.738 94.5098C104.365 94.7749 105.071 94.78 105.702 94.5241V94.5232Z" fill="#7B5DFF"/>
<path d="M108.318 100.967C107.687 101.223 107.184 101.719 106.919 102.346C106.654 102.973 106.649 103.679 106.905 104.31C107.161 104.941 107.657 105.444 108.284 105.709C108.91 105.974 109.617 105.979 110.247 105.723L120.434 101.59C121.664 99.4223 122.727 97.1502 123.493 94.8096L108.318 100.967Z" fill="#7B5DFF"/>
<path d="M96.2383 71.1977L107.822 66.4981C105.279 65.6174 102.457 64.9153 99.3579 64.3936L94.3086 66.4422C91.1953 67.7055 93.0609 72.4894 96.2383 71.1977Z" stroke="#272B32" stroke-width="0.769171" stroke-linecap="round" stroke-linejoin="round"/>
<path d="M100.587 81.9162L119.87 74.0922C118.652 72.6935 117.217 71.4284 115.568 70.2988L98.657 77.1607C98.3446 77.2873 98.0603 77.4742 97.8202 77.7108C97.5802 77.9474 97.3891 78.229 97.2579 78.5395C97.1267 78.8499 97.058 79.1832 97.0557 79.5202C97.0534 79.8573 97.1176 80.1915 97.2445 80.5037C97.3711 80.816 97.5581 81.1002 97.7946 81.3402C98.0311 81.5802 98.3126 81.7712 98.6229 81.9024C98.9333 82.0335 99.2665 82.1023 99.6034 82.1046C99.9404 82.107 100.274 82.043 100.587 81.9162Z" stroke="#272B32" stroke-width="0.769171" stroke-linecap="round" stroke-linejoin="round"/>
<path d="M105.702 94.5232L124.779 86.7826C124.746 85.017 124.475 83.264 123.975 81.5703L103.773 89.7677C103.142 90.0236 102.639 90.5196 102.373 91.1465C102.108 91.7735 102.103 92.48 102.359 93.1108C102.615 93.7415 103.111 94.2448 103.738 94.5098C104.365 94.7749 105.071 94.78 105.702 94.5241V94.5232Z" stroke="#272B32" stroke-width="0.769171" stroke-linecap="round" stroke-linejoin="round"/>
<path d="M108.318 100.967C107.687 101.223 107.184 101.719 106.919 102.346C106.654 102.973 106.649 103.679 106.905 104.31C107.161 104.941 107.657 105.444 108.284 105.709C108.91 105.974 109.617 105.979 110.247 105.723L120.434 101.59C121.664 99.4223 122.727 97.1502 123.493 94.8096L108.318 100.967Z" stroke="#272B32" stroke-width="0.769171" stroke-linecap="round" stroke-linejoin="round"/>
<path d="M105.219 173.565C104.848 173.566 104.481 173.486 104.144 173.33C103.807 173.175 103.507 172.948 103.267 172.666C81.5662 147.243 100.283 126.29 109.279 116.219C116.228 108.44 129.125 94.0025 123.326 79.7094C117.919 66.3848 100.788 63.6862 86.4132 63.2697C72.933 62.8798 50.3703 62.2481 43.3885 27.56C43.3219 27.2296 43.321 26.8894 43.386 26.5587C43.4509 26.228 43.5804 25.9134 43.767 25.6327C43.9536 25.3521 44.1937 25.111 44.4735 24.9232C44.7533 24.7354 45.0674 24.6046 45.3978 24.5382C45.7282 24.4714 46.0685 24.4703 46.3993 24.5352C46.73 24.6 47.0448 24.7295 47.3255 24.9161C47.6061 25.1027 47.8473 25.3429 48.035 25.6228C48.2227 25.9028 48.3534 26.217 48.4195 26.5475C54.5957 57.2336 73.0703 57.749 86.5588 58.1389C103.375 58.6259 121.756 62.1905 128.081 77.7788C135.083 95.035 120.255 111.637 113.127 119.615C104.465 129.312 88.3804 147.319 107.171 169.332C108.605 171.012 107.379 173.564 105.22 173.564L105.219 173.565Z" fill="#7B5DFF"/>
<path d="M105.219 173.565C104.848 173.566 104.481 173.486 104.144 173.33C103.807 173.175 103.507 172.948 103.267 172.666C81.5662 147.243 100.283 126.29 109.279 116.219C116.228 108.44 129.125 94.0025 123.326 79.7094C117.919 66.3848 100.788 63.6862 86.4132 63.2697C72.933 62.8798 50.3703 62.2481 43.3885 27.56C43.3219 27.2296 43.321 26.8894 43.386 26.5587C43.4509 26.228 43.5804 25.9134 43.767 25.6327C43.9536 25.3521 44.1937 25.111 44.4735 24.9232C44.7533 24.7354 45.0674 24.6046 45.3978 24.5382C45.7282 24.4714 46.0685 24.4703 46.3993 24.5352C46.73 24.6 47.0448 24.7295 47.3255 24.9161C47.6061 25.1027 47.8473 25.3429 48.035 25.6228C48.2227 25.9028 48.3534 26.217 48.4195 26.5475C54.5957 57.2336 73.0703 57.749 86.5588 58.1389C103.375 58.6259 121.756 62.1905 128.081 77.7788C135.083 95.035 120.255 111.637 113.127 119.615C104.465 129.312 88.3804 147.319 107.171 169.332C108.605 171.012 107.379 173.564 105.22 173.564L105.219 173.565Z" stroke="#272B32" stroke-width="0.769171" stroke-linecap="round" stroke-linejoin="round"/>
<path d="M27.9102 94.3105H37.3196" stroke="#272B32" stroke-width="0.769171" stroke-linecap="round" stroke-linejoin="round"/>
<path d="M32.6143 99.0149V89.6055" stroke="#272B32" stroke-width="0.769171" stroke-linecap="round" stroke-linejoin="round"/>
<path d="M15.0742 117.93H20.2069" stroke="#272B32" stroke-width="0.769171" stroke-linecap="round" stroke-linejoin="round"/>
<path d="M17.6406 120.496V115.363" stroke="#272B32" stroke-width="0.769171" stroke-linecap="round" stroke-linejoin="round"/>
<path d="M157.357 114.604L164.011 121.257" stroke="#272B32" stroke-width="0.769171" stroke-linecap="round" stroke-linejoin="round"/>
<path d="M157.357 121.257L164.011 114.604" stroke="#272B32" stroke-width="0.769171" stroke-linecap="round" stroke-linejoin="round"/>
<path d="M48.0652 152.201L51.4586 155.595" stroke="#272B32" stroke-width="0.769171" stroke-linecap="round" stroke-linejoin="round"/>
<path d="M48.0652 155.595L51.4586 152.201" stroke="#272B32" stroke-width="0.769171" stroke-linecap="round" stroke-linejoin="round"/>
<path d="M159.878 55.742L162.787 60.5406L166.208 53.3721" stroke="#272B32" stroke-width="0.769171" stroke-linecap="round" stroke-linejoin="round"/>
</svg>
