<svg width="18" height="18" viewBox="0 0 18 18" fill="none" xmlns="http://www.w3.org/2000/svg">
<g clip-path="url(#clip0_210_4590)">
<path d="M10.416 7.45096C11.2222 8.10871 11.625 8.43721 11.625 8.99971C11.625 9.56221 11.2222 9.89071 10.416 10.5485C10.1932 10.73 9.97275 10.901 9.7695 11.0435C9.59175 11.1687 9.39 11.2977 9.1815 11.4245C8.37675 11.9135 7.97475 12.158 7.614 11.8872C7.254 11.6172 7.221 11.0502 7.155 9.91621C7.137 9.59596 7.125 9.28171 7.125 8.99971C7.125 8.71771 7.137 8.40346 7.155 8.08321C7.221 6.94921 7.254 6.38296 7.614 6.11221C7.97475 5.84146 8.3775 6.08596 9.1815 6.57496C9.39 6.70171 9.59175 6.83071 9.7695 6.95596C9.972 7.09846 10.1932 7.26946 10.416 7.45096Z"
stroke="currentColor" stroke-width="1.5" />
<path d="M5.25 2.50351C6.38959 1.84405 7.68336 1.49784 9 1.50001C13.1422 1.50001 16.5 4.85776 16.5 9.00001C16.5 13.1423 13.1422 16.5 9 16.5C4.85775 16.5 1.5 13.1423 1.5 9.00001C1.5 7.63426 1.86525 6.35251 2.5035 5.25001" 
stroke="currentColor" stroke-width="1.5" stroke-linecap="round" />
</g>
<defs>
<clipPath id="clip0_210_4590">
<rect width="18" height="18" fill="currentColor" />
</clipPath>
</defs>
</svg>