<svg width="18" height="18" viewBox="0 0 18 18" fill="none" xmlns="http://www.w3.org/2000/svg">
<path d="M6.75 4.5L9 2.25M9 2.25L11.25 4.5M9 2.25V9.75M5.25 7.5C4.551 7.5 4.2015 7.5 3.92625 7.614C3.74414 7.68938 3.57866 7.79992 3.43929 7.93929C3.29992 8.07866 3.18938 8.24414 3.114 8.42625C3 8.7015 3 9.051 3 9.75V13.35C3 14.19 3 14.61 3.1635 14.931C3.30731 15.2132 3.53677 15.4427 3.819 15.5865C4.13925 15.75 4.55925 15.75 5.39775 15.75H12.603C13.4415 15.75 13.8608 15.75 14.181 15.5865C14.463 15.4425 14.6925 15.213 14.8365 14.931C15 14.61 15 14.1907 15 13.3522V9.75C15 9.051 15 8.7015 14.886 8.42625C14.8106 8.24414 14.7001 8.07866 14.5607 7.93929C14.4213 7.79992 14.2559 7.68938 14.0737 7.614C13.7985 7.5 13.449 7.5 12.75 7.5" stroke="currentColor" stroke-width="1.5" stroke-linecap="round" stroke-linejoin="round"/>
</svg>
