<svg width="18" height="18" viewBox="0 0 18 18" fill="none" xmlns="http://www.w3.org/2000/svg">
  <path
    d="M14.6 3C15.2122 2.99997 15.8012 3.23751 16.2466 3.66404C16.692 4.09057 16.9601 4.67384 16.996 5.2945L17 5.4375V6.91381C16.9982 7.13326 16.94 7.34841 16.8311 7.53796C16.7222 7.7275 16.5664 7.88486 16.3792 7.99444L16.2936 8.04156C16.0348 8.17059 15.8151 8.36825 15.6578 8.61364C15.5004 8.85904 15.4113 9.14305 15.3999 9.43564C15.3884 9.72824 15.455 10.0185 15.5926 10.2759C15.7302 10.5332 15.9337 10.748 16.1816 10.8975L16.2936 10.9584C16.64 11.1323 16.9496 11.4914 16.9944 11.9659L17 12.0862V13.5625C17 14.1842 16.7661 14.7825 16.3462 15.2348C15.9262 15.6872 15.3519 15.9595 14.7408 15.9959L14.6 16H3.4C2.78783 16 2.19879 15.7625 1.75339 15.336C1.30799 14.9094 1.03991 14.3262 1.004 13.7055L1 13.5625V12.0862C1 11.5938 1.2816 11.2103 1.6208 11.0056L1.7064 10.9584C1.96523 10.8294 2.18491 10.6318 2.34223 10.3864C2.49956 10.141 2.58867 9.85695 2.60014 9.56436C2.61161 9.27176 2.54503 8.98145 2.40742 8.72413C2.26981 8.4668 2.0663 8.25202 1.8184 8.1025L1.7064 8.04156C1.36 7.86769 1.0504 7.50856 1.0056 7.03406L1 6.91462V5.4375C0.999966 4.81577 1.23386 4.21752 1.65383 3.76516C2.07379 3.31281 2.64809 3.04054 3.2592 3.00406L3.4 3H14.6ZM14.6 4.625H3.4C3.20405 4.62503 3.01493 4.69809 2.8685 4.83033C2.72207 4.96257 2.62853 5.1448 2.6056 5.34244L2.6 5.4375V6.68469C3.07396 6.96239 3.46989 7.35889 3.74996 7.83631C4.03004 8.31372 4.18489 8.8561 4.19974 9.41163C4.21459 9.96715 4.08893 10.5173 3.83476 11.0094C3.5806 11.5015 3.20643 11.9193 2.748 12.2227L2.6 12.3153V13.5625C2.60003 13.7615 2.67196 13.9536 2.80217 14.1023C2.93238 14.251 3.1118 14.346 3.3064 14.3693L3.4 14.375H14.6C14.7959 14.375 14.9851 14.3019 15.1315 14.1697C15.2779 14.0374 15.3715 13.8552 15.3944 13.6576L15.4 13.5625V12.3153C14.926 12.0376 14.5301 11.6411 14.25 11.1637C13.97 10.6863 13.8151 10.1439 13.8003 9.58837C13.7854 9.03285 13.9111 8.48273 14.1652 7.99059C14.4194 7.49845 14.7936 7.08072 15.252 6.77731L15.4 6.68469V5.4375C15.4 5.23849 15.328 5.04641 15.1978 4.8977C15.0676 4.74898 14.8882 4.65397 14.6936 4.63069L14.6 4.625ZM7.4 7.0625C7.59595 7.06253 7.78507 7.13559 7.9315 7.26783C8.07793 7.40007 8.17147 7.5823 8.1944 7.77994L8.2 7.875V11.125C8.19977 11.3321 8.1217 11.5313 7.98172 11.6819C7.84175 11.8324 7.65044 11.9231 7.44688 11.9352C7.24333 11.9473 7.0429 11.8801 6.88653 11.7472C6.73017 11.6142 6.62968 11.4257 6.6056 11.2201L6.6 11.125V7.875C6.6 7.65951 6.68429 7.45285 6.83431 7.30048C6.98434 7.1481 7.18783 7.0625 7.4 7.0625Z"
    fill="currentColor"
  />
</svg>
