<svg width="16" height="16" viewBox="0 0 16 16" fill="none" xmlns="http://www.w3.org/2000/svg">
  <path
    d="M2 4.5C2 3.32133 2 2.732 2.36667 2.36667C2.73133 2 3.32067 2 4.5 2C5.67933 2 6.268 2 6.63333 2.36667C7 2.732 7 3.32133 7 4.5C7 5.67867 7 6.268 6.63333 6.63333C6.268 7 5.67867 7 4.5 7C3.32133 7 2.732 7 2.36667 6.63333C2 6.26867 2 5.67933 2 4.5ZM2 11.5047C2 10.326 2 9.73667 2.36667 9.37133C2.732 9.00467 3.32133 9.00467 4.5 9.00467C5.67867 9.00467 6.268 9.00467 6.63333 9.37133C7 9.73667 7 10.326 7 11.5047C7 12.6833 7 13.2727 6.63333 13.638C6.268 14.0047 5.67867 14.0047 4.5 14.0047C3.32133 14.0047 2.732 14.0047 2.36667 13.638C2 13.2733 2 12.6833 2 11.5047ZM9 4.5C9 3.32133 9 2.732 9.36667 2.36667C9.732 2 10.3213 2 11.5 2C12.6787 2 13.268 2 13.6333 2.36667C14 2.732 14 3.32133 14 4.5C14 5.67867 14 6.268 13.6333 6.63333C13.268 7 12.6787 7 11.5 7C10.3213 7 9.732 7 9.36667 6.63333C9 6.268 9 5.67867 9 4.5ZM9 11.5047C9 10.326 9 9.73667 9.36667 9.37133C9.732 9.00467 10.3213 9.00467 11.5 9.00467C12.6787 9.00467 13.268 9.00467 13.6333 9.37133C14 9.73667 14 10.326 14 11.5047C14 12.6833 14 13.2727 13.6333 13.638C13.268 14.0047 12.6787 14.0047 11.5 14.0047C10.3213 14.0047 9.732 14.0047 9.36667 13.638C9 13.2727 9 12.6833 9 11.5047Z"
    stroke="currentColor"
    stroke-width="1.2"
    stroke-linecap="round"
    stroke-linejoin="round"
  />
</svg>
