<svg width="16" height="16" viewBox="0 0 16 16" fill="none" xmlns="http://www.w3.org/2000/svg">
  <path
    d="M3.42867 1.59961C2.9437 1.59961 2.4786 1.79226 2.13567 2.13519C1.79275 2.47811 1.6001 2.94321 1.6001 3.42818V4.34247C1.6001 4.88829 1.83964 5.37927 2.21907 5.71389C2.02452 5.8855 1.86871 6.09654 1.76199 6.33299C1.65527 6.56945 1.60008 6.8259 1.6001 7.08532V8.91389C1.6001 9.45972 1.83964 9.94978 2.21907 10.2853C2.02452 10.4569 1.86871 10.668 1.76199 10.9044C1.65527 11.1409 1.60008 11.3973 1.6001 11.6568V12.571C1.6001 13.056 1.79275 13.5211 2.13567 13.864C2.4786 14.207 2.9437 14.3996 3.42867 14.3996H12.5715C13.0565 14.3996 13.5216 14.207 13.8645 13.864C14.2074 13.5211 14.4001 13.056 14.4001 12.571V11.6568C14.4001 11.1109 14.1606 10.6209 13.7811 10.2853C14.1606 9.94978 14.4001 9.45972 14.4001 8.91389V7.08532C14.4001 6.53949 14.1606 6.04852 13.7811 5.71389C14.1606 5.37927 14.4001 4.88829 14.4001 4.34247V3.42818C14.4001 2.94321 14.2074 2.47811 13.8645 2.13519C13.5216 1.79226 13.0565 1.59961 12.5715 1.59961H3.42867ZM2.51438 11.6568C2.51438 11.4143 2.61071 11.1817 2.78217 11.0103C2.95363 10.8388 3.18619 10.7425 3.42867 10.7425H5.25724V13.4853H3.42867C3.18619 13.4853 2.95363 13.389 2.78217 13.2175C2.61071 13.0461 2.51438 12.8135 2.51438 12.571V11.6568ZM6.17153 13.4853V10.7425H12.5715C12.814 10.7425 13.0466 10.8388 13.218 11.0103C13.3895 11.1817 13.4858 11.4143 13.4858 11.6568V12.571C13.4858 12.8135 13.3895 13.0461 13.218 13.2175C13.0466 13.389 12.814 13.4853 12.5715 13.4853H6.17153ZM6.17153 9.82818V6.17104H12.5715C12.814 6.17104 13.0466 6.26736 13.218 6.43883C13.3895 6.61029 13.4858 6.84284 13.4858 7.08532V8.91389C13.4858 9.15638 13.3895 9.38893 13.218 9.56039C13.0466 9.73185 12.814 9.82818 12.5715 9.82818H6.17153ZM5.25724 6.17104V9.82818H3.42867C3.18619 9.82818 2.95363 9.73185 2.78217 9.56039C2.61071 9.38893 2.51438 9.15638 2.51438 8.91389V7.08532C2.51438 6.84284 2.61071 6.61029 2.78217 6.43883C2.95363 6.26736 3.18619 6.17104 3.42867 6.17104H5.25724ZM5.25724 5.25675H3.42867C3.18619 5.25675 2.95363 5.16043 2.78217 4.98896C2.61071 4.8175 2.51438 4.58495 2.51438 4.34247V3.42818C2.51438 3.1857 2.61071 2.95315 2.78217 2.78168C2.95363 2.61022 3.18619 2.5139 3.42867 2.5139H5.25724V5.25675ZM6.17153 5.25675V2.5139H12.5715C12.814 2.5139 13.0466 2.61022 13.218 2.78168C13.3895 2.95315 13.4858 3.1857 13.4858 3.42818V4.34247C13.4858 4.58495 13.3895 4.8175 13.218 4.98896C13.0466 5.16043 12.814 5.25675 12.5715 5.25675H6.17153Z"
    fill="currentColor"
  />
</svg>
