<svg width="16" height="20" viewBox="0 0 16 20" fill="none" xmlns="http://www.w3.org/2000/svg">
<path d="M2.49935 19.1667C1.99518 19.1667 1.56374 18.9873 1.20502 18.6286C0.846293 18.2699 0.666627 17.8381 0.666016 17.3333V2.66668C0.666016 2.16251 0.845682 1.73107 1.20502 1.37234C1.56435 1.01362 1.99579 0.833955 2.49935 0.833344H9.07643C9.32088 0.833344 9.55402 0.879177 9.77585 0.970844C9.99768 1.06251 10.1923 1.19237 10.3598 1.36043L14.8056 5.80626C14.9737 5.97432 15.1035 6.16926 15.1952 6.39109C15.2868 6.61293 15.3327 6.84576 15.3327 7.08959V17.3333C15.3327 17.8375 15.1533 18.2693 14.7946 18.6286C14.4359 18.9879 14.0041 19.1673 13.4993 19.1667H2.49935ZM8.91602 6.33334C8.91602 6.59307 9.00401 6.81093 9.18002 6.98693C9.35602 7.16293 9.57357 7.25062 9.83268 7.25001H13.4993L8.91602 2.66668V6.33334ZM6.85352 16.4167C7.43407 16.4167 7.92296 16.2181 8.32018 15.8208C8.7174 15.4236 8.91602 14.9347 8.91602 14.3542V10.9167H10.7493C11.0091 10.9167 11.2269 10.8287 11.4029 10.6527C11.5789 10.4767 11.6666 10.2591 11.666 10C11.6654 9.7409 11.5774 9.52334 11.402 9.34734C11.2266 9.17134 11.0091 9.08334 10.7493 9.08334H8.91602C8.65629 9.08334 8.43874 9.17134 8.26335 9.34734C8.08796 9.52334 7.99996 9.7409 7.99935 10V12.6354C7.83129 12.5132 7.65193 12.4252 7.46127 12.3714C7.2706 12.3176 7.06802 12.2911 6.85352 12.2917C6.27296 12.2917 5.78407 12.4903 5.38685 12.8875C4.98963 13.2847 4.79102 13.7736 4.79102 14.3542C4.79102 14.9347 4.98963 15.4236 5.38685 15.8208C5.78407 16.2181 6.27296 16.4167 6.85352 16.4167Z" fill="white"/>
</svg>
