<svg width="16" height="16" viewBox="0 0 16 16" fill="none" xmlns="http://www.w3.org/2000/svg">
<path d="M6.5 7C6.5 6.80109 6.57902 6.61032 6.71967 6.46967C6.86032 6.32902 7.05109 6.25 7.25 6.25H11.75C11.9489 6.25 12.1397 6.32902 12.2803 6.46967C12.421 6.61032 12.5 6.80109 12.5 7C12.5 7.19891 12.421 7.38968 12.2803 7.53033C12.1397 7.67098 11.9489 7.75 11.75 7.75H7.25C7.05109 7.75 6.86032 7.67098 6.71967 7.53033C6.57902 7.38968 6.5 7.19891 6.5 7ZM7.25 10.25H11.75C11.9489 10.25 12.1397 10.171 12.2803 10.0303C12.421 9.88968 12.5 9.69891 12.5 9.5C12.5 9.30109 12.421 9.11032 12.2803 8.96967C12.1397 8.82902 11.9489 8.75 11.75 8.75H7.25C7.05109 8.75 6.86032 8.82902 6.71967 8.96967C6.57902 9.11032 6.5 9.30109 6.5 9.5C6.5 9.69891 6.57902 9.88968 6.71967 10.0303C6.86032 10.171 7.05109 10.25 7.25 10.25ZM15.5 4.25V11.75C15.5 11.9798 15.4547 12.2074 15.3668 12.4197C15.2788 12.632 15.1499 12.8249 14.9874 12.9874C14.8249 13.1499 14.632 13.2788 14.4197 13.3668C14.2074 13.4547 13.9798 13.5 13.75 13.5H3C2.46957 13.5 1.96086 13.2893 1.58579 12.9142C1.21071 12.5391 1 12.0304 1 11.5V5.75C1 5.55109 1.07902 5.36032 1.21967 5.21967C1.36032 5.07902 1.55109 5 1.75 5C1.94891 5 2.13968 5.07902 2.28033 5.21967C2.42098 5.36032 2.5 5.55109 2.5 5.75V11.5C2.5 11.6326 2.55268 11.7598 2.64645 11.8536C2.74021 11.9473 2.86739 12 3 12C3.13261 12 3.25979 11.9473 3.35355 11.8536C3.44732 11.7598 3.5 11.6326 3.5 11.5V4.25C3.5 3.91848 3.6317 3.60054 3.86612 3.36612C4.10054 3.1317 4.41848 3 4.75 3H14.25C14.5815 3 14.8995 3.1317 15.1339 3.36612C15.3683 3.60054 15.5 3.91848 15.5 4.25ZM14 4.5H5V11.5C5.00033 11.6686 4.97933 11.8366 4.9375 12H13.75C13.8163 12 13.8799 11.9737 13.9268 11.9268C13.9737 11.8799 14 11.8163 14 11.75V4.5Z" fill="currentColor"/>
</svg>
