<svg width="24" height="25" viewBox="0 0 24 25" fill="none" xmlns="http://www.w3.org/2000/svg">
<path fill-rule="evenodd" clip-rule="evenodd" d="M11.9999 22.1004C14.546 22.1004 16.9878 21.089 18.7881 19.2886C20.5885 17.4883 21.5999 15.0465 21.5999 12.5004C21.5999 9.95431 20.5885 7.51251 18.7881 5.71217C16.9878 3.91182 14.546 2.90039 11.9999 2.90039C9.45382 2.90039 7.01203 3.91182 5.21168 5.71217C3.41133 7.51251 2.3999 9.95431 2.3999 12.5004C2.3999 15.0465 3.41133 17.4883 5.21168 19.2886C7.01203 21.089 9.45382 22.1004 11.9999 22.1004ZM11.4659 9.10199C11.2852 8.98142 11.0751 8.91216 10.8581 8.90162C10.6411 8.89108 10.4253 8.93965 10.2338 9.04214C10.0422 9.14463 9.88209 9.2972 9.77045 9.48358C9.65881 9.66995 9.59987 9.88314 9.5999 10.1004V14.9004C9.59987 15.1176 9.65881 15.3308 9.77045 15.5172C9.88209 15.7036 10.0422 15.8561 10.2338 15.9586C10.4253 16.0611 10.6411 16.1097 10.8581 16.0992C11.0751 16.0886 11.2852 16.0194 11.4659 15.8988L15.0659 13.4988C15.2303 13.3892 15.365 13.2407 15.4582 13.0666C15.5514 12.8924 15.6002 12.6979 15.6002 12.5004C15.6002 12.3029 15.5514 12.1084 15.4582 11.9342C15.365 11.76 15.2303 11.6116 15.0659 11.502L11.4659 9.10199Z" fill="currentColor"/>
</svg>
