<svg width="18" height="18" viewBox="0 0 18 18" fill="none" xmlns="http://www.w3.org/2000/svg">
<path d="M10.5 2.25H7.5C4.67175 2.25 3.25725 2.25 2.379 3.129C1.50075 4.008 1.5 5.42175 1.5 8.25C1.5 11.0782 1.5 12.4927 2.379 13.371C3.258 14.2492 4.67175 14.25 7.5 14.25H10.5C13.3282 14.25 14.7427 14.25 15.621 13.371C16.4992 12.492 16.5 11.0782 16.5 8.25C16.5 5.42175 16.5 4.00725 15.621 3.129C14.742 2.25075 13.3282 2.25 10.5 2.25Z" 
stroke="currentColor" stroke-width="1.5" stroke-linecap="round" stroke-linejoin="round" />
<path d="M12.675 11.625C12.675 11.3067 12.8014 11.0015 13.0265 10.7765C13.2515 10.5514 13.5567 10.425 13.875 10.425M10.275 11.625C10.275 10.6702 10.6543 9.75455 11.3294 9.07942C12.0045 8.40428 12.9202 8.025 13.875 8.025M7.875 11.625C7.875 10.0337 8.50714 8.50758 9.63236 7.38236C10.7576 6.25714 12.2837 5.625 13.875 5.625M13.5 14.25L14.25 15.75M4.5 14.25L3.75 15.75" 
stroke="currentColor" stroke-width="1.5" stroke-linecap="round" stroke-linejoin="round" />
</svg>