<svg width="16" height="16" viewBox="0 0 16 16" fill="none" xmlns="http://www.w3.org/2000/svg">
<path d="M11.6663 7.90039C12.6652 7.90039 13.6239 8.29752 14.3303 9.00391C15.0365 9.71026 15.4329 10.6682 15.4329 11.667C15.4329 12.6658 15.0365 13.6237 14.3303 14.3301C13.6239 15.0365 12.6652 15.4336 11.6663 15.4336C10.6674 15.4335 9.70948 15.0364 9.00317 14.3301C8.29689 13.6237 7.89966 12.6659 7.89966 11.667C7.89966 10.6681 8.29689 9.71028 9.00317 9.00391C9.70948 8.2976 10.6674 7.90048 11.6663 7.90039ZM12.8333 2.56738C13.3459 2.56738 13.8379 2.77034 14.2004 3.13281C14.5629 3.49531 14.7668 3.98737 14.7668 4.5V8.77539L14.5969 8.6123C14.3064 8.33306 13.9777 8.09643 13.6204 7.91016L13.5667 7.88184V4.5C13.5665 4.09538 13.2379 3.7666 12.8333 3.7666H3.16626C2.76175 3.76678 2.43304 4.09549 2.43286 4.5V11.5C2.43286 11.9047 2.76164 12.2332 3.16626 12.2334H7.46997L7.48267 12.3184C7.53477 12.6538 7.62763 12.9815 7.75806 13.2949L7.81567 13.4336H3.16626C2.91252 13.4336 2.66143 13.3832 2.427 13.2861C2.19244 13.189 1.9786 13.0467 1.79907 12.8672C1.6197 12.6877 1.47723 12.4747 1.38013 12.2402C1.28298 12.0057 1.23364 11.7539 1.23364 11.5V4.5C1.23373 3.98737 1.43658 3.49531 1.79907 3.13281C2.16157 2.77032 2.65363 2.56747 3.16626 2.56738H12.8333ZM11.011 10.1006C10.9689 10.0986 10.927 10.1081 10.8899 10.1279C10.8528 10.1478 10.8217 10.1778 10.8 10.2139C10.7784 10.2501 10.7668 10.2918 10.7668 10.334V13C10.7669 13.042 10.7785 13.0831 10.8 13.1191C10.8217 13.1553 10.8527 13.1852 10.8899 13.2051C10.9271 13.225 10.9689 13.2344 11.011 13.2324C11.0531 13.2304 11.094 13.2167 11.1292 13.1934L13.1301 11.8613C13.162 11.8401 13.1882 11.811 13.2063 11.7773C13.2244 11.7435 13.2346 11.7054 13.2346 11.667C13.2346 11.6286 13.2244 11.5905 13.2063 11.5566C13.1882 11.5229 13.162 11.4939 13.1301 11.4727L11.1292 10.1396C11.094 10.1162 11.0532 10.1026 11.011 10.1006Z" fill="currentColor" stroke="currentColor" stroke-width="0.2"/>
</svg>
