<svg width="16" height="17" viewBox="0 0 16 17" fill="none" xmlns="http://www.w3.org/2000/svg">
<path d="M11.793 8.00063H2.5C2.36739 8.00063 2.24021 8.05331 2.14645 8.14708C2.05268 8.24085 2 8.36802 2 8.50063C2 8.63324 2.05268 8.76042 2.14645 8.85419C2.24021 8.94795 2.36739 9.00063 2.5 9.00063H11.793L8.146 12.6466C8.05211 12.7405 7.99937 12.8679 7.99937 13.0006C7.99937 13.1334 8.05211 13.2607 8.146 13.3546C8.23989 13.4485 8.36722 13.5013 8.5 13.5013C8.63278 13.5013 8.76011 13.4485 8.854 13.3546L13.354 8.85463C13.4006 8.80819 13.4375 8.75301 13.4627 8.69226C13.4879 8.63152 13.5009 8.5664 13.5009 8.50063C13.5009 8.43486 13.4879 8.36974 13.4627 8.309C13.4375 8.24825 13.4006 8.19308 13.354 8.14663L8.854 3.64663C8.76011 3.55274 8.63278 3.5 8.5 3.5C8.36722 3.5 8.23989 3.55274 8.146 3.64663C8.05211 3.74052 7.99937 3.86786 7.99937 4.00063C7.99937 4.13341 8.05211 4.26075 8.146 4.35463L11.793 8.00063Z" fill="currentColor"/>
</svg>
