<svg width="18" height="18" viewBox="0 0 18 18" fill="none" xmlns="http://www.w3.org/2000/svg">
  <g clip-path="url(#clip0_210_8882)">
    <path
      d="M15.4702 9.43568L16.5827 10.4264C16.7881 10.5979 16.9254 10.8372 16.9696 11.1011C17.0139 11.365 16.9622 11.6361 16.8239 11.8651L15.4825 14.1568C15.3784 14.3322 15.2298 14.477 15.0518 14.5764C14.8716 14.6761 14.6694 14.729 14.4635 14.7303C14.3358 14.7311 14.2088 14.712 14.087 14.6737L12.6631 14.2035C12.4137 14.3635 12.1544 14.5067 11.8853 14.6331L11.5863 16.0767C11.531 16.3423 11.3831 16.5795 11.1691 16.7462C10.9524 16.9159 10.6837 17.0054 10.4086 16.9997H7.63103C7.35588 17.0054 7.08721 16.9159 6.8705 16.7462C6.65696 16.5793 6.50956 16.3421 6.45455 16.0767L6.15427 14.6331C5.8887 14.505 5.63104 14.3612 5.38266 14.2023L3.95389 14.6737C3.83207 14.712 3.70502 14.7311 3.57732 14.7303C3.37187 14.7288 3.17007 14.6759 2.9903 14.5764C2.8124 14.4773 2.66382 14.333 2.55958 14.158L1.17019 11.8651C1.02575 11.634 0.970561 11.3581 1.01496 11.0892C1.05937 10.8202 1.20032 10.5767 1.4114 10.4043L2.52266 9V8.56432L1.41017 7.57358C1.20473 7.40214 1.06746 7.16279 1.02322 6.89888C0.978972 6.63497 1.03067 6.36394 1.16896 6.13486L2.55835 3.84324C2.66242 3.66782 2.81102 3.52304 2.98907 3.42356C3.16884 3.32408 3.37064 3.27119 3.57609 3.26972C3.70264 3.26174 3.82966 3.27336 3.95266 3.30418L5.35313 3.79647C5.60336 3.63648 5.86261 3.4933 6.13089 3.36695L6.43116 1.9233C6.48618 1.65792 6.63358 1.42067 6.84712 1.25379C7.06383 1.08412 7.3325 0.994561 7.60765 1.00026H10.3618C10.637 0.994561 10.9056 1.08412 11.1224 1.25379C11.3377 1.4224 11.4854 1.65993 11.5383 1.9233L11.8386 3.36695C12.1052 3.49412 12.3624 3.63771 12.6102 3.79771L14.0402 3.32757C14.1989 3.27593 14.3666 3.25781 14.5327 3.27433C14.6987 3.29085 14.8596 3.34167 15.005 3.42356C15.1835 3.52448 15.3311 3.66971 15.4357 3.84201L16.8239 6.13486C16.9703 6.36405 17.0283 6.63868 16.9871 6.90749C16.9458 7.17631 16.8082 7.42094 16.5999 7.59574L15.4702 8.55817V9.43568Z"
      stroke="currentColor"
      stroke-width="1.5"
    />
    <path
      d="M12 9C12 9.79565 11.6839 10.5587 11.1213 11.1213C10.5587 11.6839 9.79565 12 9 12C8.20435 12 7.44129 11.6839 6.87868 11.1213C6.31607 10.5587 6 9.79565 6 9C6 8.20435 6.31607 7.44129 6.87868 6.87868C7.44129 6.31607 8.20435 6 9 6C9.79565 6 10.5587 6.31607 11.1213 6.87868C11.6839 7.44129 12 8.20435 12 9Z"
      stroke="currentColor"
      stroke-width="1.5"
    />
  </g>
  <defs>
    <clipPath id="clip0_210_8882">
      <rect width="18" height="18" fill="currentColor" />
    </clipPath>
  </defs>
</svg>
